<svg id="Layer_1" enable-background="new 0 0 480 480" viewBox="0 0 480 480" xmlns="http://www.w3.org/2000/svg"><path d="m440 63h-400c-22.1 0-40 17.9-40 40v108c0 4.4 3.6 8 8 8h418c4.4 0 8-3.6 8-8s-3.6-8-8-8h-410v-52h410c4.4 0 8-3.6 8-8s-3.6-8-8-8h-410v-32c0-13.2 10.8-24 24-24h400c13.2 0 24 10.8 24 24v274c0 13.2-10.8 24-24 24h-400c-13.2 0-24-10.8-24-24v-120c0-4.4-3.6-8-8-8s-8 3.6-8 8v120c0 22.1 17.9 40 40 40h400c22.1 0 40-17.9 40-40v-274c0-22.1-17.9-40-40-40zm-367 231h67c4.4 0 8-3.6 8-8s-3.6-8-8-8h-67c-4.4 0-8 3.6-8 8s3.6 8 8 8zm0 50h67c4.4 0 8-3.6 8-8s-3.6-8-8-8h-67c-4.4 0-8 3.6-8 8s3.6 8 8 8z"/></svg>